<svg width="24" height="24" viewBox="0 0 24 24" fill="none" xmlns="http://www.w3.org/2000/svg">
<rect width="24" height="24" rx="4" fill="url(#paint0_linear_1288_5753)"/>
<path fill-rule="evenodd" clip-rule="evenodd" d="M5.51819 5.79236C4.45312 6.85743 4.45312 8.57163 4.45312 12C4.45312 15.4284 4.45312 17.1426 5.51819 18.2077C6.58326 19.2727 8.29746 19.2727 11.7259 19.2727C15.1542 19.2727 16.8684 19.2727 17.9335 18.2077C18.9986 17.1426 18.9986 15.4284 18.9986 12C18.9986 8.57163 18.9986 6.85743 17.9335 5.79236C16.8684 4.72729 15.1542 4.72729 11.7259 4.72729C8.29746 4.72729 6.58326 4.72729 5.51819 5.79236ZM6.96991 11.3334C7.241 8.94539 9.27062 7.09093 11.7328 7.09093C13.1743 7.09093 14.4678 7.72708 15.3458 8.73205C15.544 8.9589 15.5208 9.30348 15.294 9.50169C15.0671 9.6999 14.7225 9.67667 14.5243 9.44982C13.8448 8.67209 12.8466 8.18184 11.7328 8.18184C9.87287 8.18184 8.33416 9.5507 8.07009 11.3334H8.33425C8.55493 11.3334 8.75387 11.4663 8.83825 11.6702C8.92264 11.8742 8.87583 12.1088 8.71968 12.2648L7.87003 13.1133C7.65708 13.3259 7.31213 13.3259 7.09917 13.1133L6.24953 12.2648C6.09337 12.1088 6.04657 11.8742 6.13095 11.6702C6.21534 11.4663 6.41428 11.3334 6.63496 11.3334H6.96991ZM15.5817 10.8868C15.7947 10.6741 16.1397 10.6741 16.3526 10.8868L17.2022 11.7353C17.3584 11.8912 17.4052 12.1259 17.3208 12.3298C17.2364 12.5337 17.0375 12.6667 16.8168 12.6667H16.4819C16.2108 15.0547 14.1812 16.9091 11.719 16.9091C10.2775 16.9091 8.984 16.273 8.10595 15.268C7.90774 15.0411 7.93097 14.6966 8.15782 14.4984C8.38468 14.3001 8.72926 14.3234 8.92746 14.5502C9.60697 15.328 10.6052 15.8182 11.719 15.8182C13.5789 15.8182 15.1176 14.4493 15.3817 12.6667H15.1175C14.8968 12.6667 14.6979 12.5337 14.6135 12.3298C14.5291 12.1259 14.5759 11.8912 14.7321 11.7353L15.5817 10.8868Z" fill="white"/>
<defs>
<linearGradient id="paint0_linear_1288_5753" x1="9.5" y1="7" x2="22" y2="19.5" gradientUnits="userSpaceOnUse">
<stop stop-color="#007AFF"/>
<stop offset="1" stop-color="#95C8FF"/>
</linearGradient>
</defs>
</svg>
