<svg width="24" height="25" viewBox="0 0 24 25" fill="none" xmlns="http://www.w3.org/2000/svg">
<path d="M12 6.75C12.4142 6.75 12.75 7.08579 12.75 7.5V13.5C12.75 13.9142 12.4142 14.25 12 14.25C11.5858 14.25 11.25 13.9142 11.25 13.5V7.5C11.25 7.08579 11.5858 6.75 12 6.75Z" fill="#007AFF"/>
<path d="M13 16.5C13 17.0523 12.5523 17.5 12 17.5C11.4477 17.5 11 17.0523 11 16.5C11 15.9477 11.4477 15.5 12 15.5C12.5523 15.5 13 15.9477 13 16.5Z" fill="#007AFF"/>
<path fill-rule="evenodd" clip-rule="evenodd" d="M12 1.75C11.2954 1.75 10.6519 1.94359 9.94858 2.27037C9.26808 2.58656 8.48039 3.05304 7.49457 3.63685L6.74148 4.08283C5.75533 4.66682 4.96771 5.13324 4.36076 5.57944C3.73315 6.04083 3.25177 6.51311 2.90334 7.13212C2.55548 7.75014 2.39841 8.41095 2.32306 9.19506C2.24999 9.95539 2.24999 10.8865 2.25 12.056V12.944C2.24999 14.1135 2.24999 15.0446 2.32306 15.8049C2.39841 16.5891 2.55548 17.2499 2.90334 17.8679C3.25177 18.4869 3.73315 18.9592 4.36076 19.4206C4.96771 19.8668 5.75533 20.3332 6.74148 20.9172L7.4946 21.3632C8.48038 21.947 9.2681 22.4135 9.94858 22.7296C10.6519 23.0564 11.2954 23.25 12 23.25C12.7046 23.25 13.3481 23.0564 14.0514 22.7296C14.7319 22.4134 15.5196 21.947 16.5054 21.3632L17.2585 20.9172C18.2446 20.3332 19.0323 19.8668 19.6392 19.4206C20.2669 18.9592 20.7482 18.4869 21.0967 17.8679C21.4445 17.2499 21.6016 16.5891 21.6769 15.8049C21.75 15.0446 21.75 14.1135 21.75 12.9441V12.056C21.75 10.8866 21.75 9.95538 21.6769 9.19506C21.6016 8.41095 21.4445 7.75014 21.0967 7.13212C20.7482 6.51311 20.2669 6.04083 19.6392 5.57944C19.0323 5.13324 18.2447 4.66683 17.2585 4.08285L16.5054 3.63685C15.5196 3.05303 14.7319 2.58656 14.0514 2.27037C13.3481 1.94359 12.7046 1.75 12 1.75ZM8.22524 4.94744C9.25238 4.33917 9.97606 3.91161 10.5807 3.63069C11.1702 3.35676 11.5907 3.25 12 3.25C12.4093 3.25 12.8298 3.35676 13.4193 3.63069C14.0239 3.91161 14.7476 4.33917 15.7748 4.94744L16.4609 5.35379C17.4879 5.96197 18.2109 6.39115 18.7508 6.788C19.2767 7.17467 19.581 7.49746 19.7895 7.86788C19.9986 8.23929 20.1199 8.6739 20.1838 9.33855C20.2492 10.0188 20.25 10.878 20.25 12.0937V12.9063C20.25 14.122 20.2492 14.9812 20.1838 15.6614C20.1199 16.3261 19.9986 16.7607 19.7895 17.1321C19.581 17.5025 19.2767 17.8253 18.7508 18.212C18.2109 18.6089 17.4879 19.038 16.4609 19.6462L15.7748 20.0526C14.7476 20.6608 14.0239 21.0884 13.4193 21.3693C12.8298 21.6432 12.4093 21.75 12 21.75C11.5907 21.75 11.1702 21.6432 10.5807 21.3693C9.97606 21.0884 9.25238 20.6608 8.22524 20.0526L7.53909 19.6462C6.5121 19.038 5.78906 18.6089 5.24924 18.212C4.72326 17.8253 4.419 17.5025 4.2105 17.1321C4.00145 16.7607 3.88005 16.3261 3.81618 15.6614C3.7508 14.9812 3.75 14.122 3.75 12.9063V12.0937C3.75 10.878 3.7508 10.0188 3.81618 9.33855C3.88005 8.6739 4.00145 8.23929 4.2105 7.86788C4.419 7.49746 4.72326 7.17467 5.24924 6.788C5.78906 6.39115 6.5121 5.96197 7.53909 5.35379L8.22524 4.94744Z" fill="#007AFF"/>
</svg>
