<svg width="24" height="24" viewBox="0 0 24 24" fill="none" xmlns="http://www.w3.org/2000/svg">
<rect width="24" height="24" rx="4" fill="url(#paint0_linear_1285_5566)"/>
<path fill-rule="evenodd" clip-rule="evenodd" d="M9.97487 5.60022C9.79776 5.75115 9.7092 5.82662 9.61462 5.89001C9.39782 6.03533 9.15434 6.13618 8.89829 6.18673C8.78659 6.20878 8.6706 6.21804 8.43864 6.23655C7.85581 6.28306 7.5644 6.30631 7.32127 6.39219C6.75895 6.59081 6.31664 7.03312 6.11802 7.59544C6.03214 7.83857 6.00889 8.12998 5.96238 8.71281C5.94387 8.94477 5.93461 9.06076 5.91256 9.17246C5.86201 9.42851 5.76116 9.67199 5.61584 9.88879C5.55245 9.98337 5.47699 10.0719 5.32605 10.249C4.94682 10.694 4.7572 10.9166 4.64601 11.1492C4.38883 11.6873 4.38883 12.3128 4.64601 12.8509C4.7572 13.0835 4.94682 13.306 5.32605 13.751C5.47697 13.9281 5.55246 14.0167 5.61584 14.1112C5.76116 14.3281 5.86201 14.5715 5.91256 14.8276C5.93461 14.9393 5.94387 15.0553 5.96238 15.2872C6.00889 15.8701 6.03214 16.1615 6.11802 16.4046C6.31664 16.9669 6.75895 17.4092 7.32127 17.6079C7.5644 17.6937 7.85581 17.717 8.43864 17.7635C8.6706 17.782 8.78659 17.7913 8.89829 17.8133C9.15434 17.8639 9.39782 17.9647 9.61462 18.11C9.7092 18.1734 9.79776 18.2489 9.97487 18.3998C10.4199 18.7791 10.6424 18.9687 10.875 19.0799C11.4131 19.337 12.0386 19.337 12.5767 19.0799C12.8093 18.9687 13.0318 18.7791 13.4768 18.3998C13.6539 18.2489 13.7425 18.1734 13.8371 18.11C14.0539 17.9647 14.2974 17.8639 14.5534 17.8133C14.6651 17.7913 14.7811 17.782 15.0131 17.7635C15.5959 17.717 15.8873 17.6937 16.1304 17.6079C16.6928 17.4092 17.1351 16.9669 17.3337 16.4046C17.4196 16.1615 17.4428 15.8701 17.4893 15.2872C17.5078 15.0553 17.5171 14.9393 17.5391 14.8276C17.5897 14.5715 17.6905 14.3281 17.8359 14.1112C17.8993 14.0167 17.9747 13.9281 18.1257 13.751C18.5049 13.306 18.6945 13.0835 18.8057 12.8509C19.0629 12.3128 19.0629 11.6873 18.8057 11.1492C18.6945 10.9166 18.5049 10.694 18.1257 10.249C17.9747 10.0719 17.8993 9.98337 17.8359 9.88879C17.6905 9.67199 17.5897 9.42851 17.5391 9.17246C17.5171 9.06076 17.5078 8.94477 17.4893 8.71281C17.4428 8.12998 17.4196 7.83857 17.3337 7.59544C17.1351 7.03312 16.6928 6.59081 16.1304 6.39219C15.8873 6.30631 15.5959 6.28306 15.0131 6.23655C14.7811 6.21804 14.6651 6.20878 14.5534 6.18673C14.2974 6.13618 14.0539 6.03533 13.8371 5.89001C13.7425 5.82662 13.6539 5.75116 13.4768 5.60022C13.0318 5.22099 12.8093 5.03137 12.5767 4.92018C12.0386 4.663 11.4131 4.663 10.875 4.92018C10.6424 5.03137 10.4199 5.22099 9.97487 5.60022ZM14.9066 10.4459C15.1377 10.2148 15.1377 9.84002 14.9066 9.60887C14.6754 9.37772 14.3006 9.37772 14.0695 9.60887L10.542 13.1363L9.38219 11.9765C9.15104 11.7453 8.77627 11.7453 8.54512 11.9765C8.31397 12.2076 8.31397 12.5824 8.54512 12.8135L10.1235 14.3919C10.3547 14.6231 10.7294 14.6231 10.9606 14.3919L14.9066 10.4459Z" fill="white"/>
<defs>
<linearGradient id="paint0_linear_1285_5566" x1="5.5" y1="2.38419e-07" x2="27.5" y2="24" gradientUnits="userSpaceOnUse">
<stop stop-color="#1BC400"/>
<stop offset="1" stop-color="#87FF74"/>
</linearGradient>
</defs>
</svg>
