<svg width="16" height="16" viewBox="0 0 16 16" fill="none" xmlns="http://www.w3.org/2000/svg">
<g clip-path="url(#clip0_1432_17756)">
<path fill-rule="evenodd" clip-rule="evenodd" d="M7.4987 1.33325C7.4987 1.05711 7.72256 0.833252 7.9987 0.833252C11.9567 0.833252 15.1654 4.04188 15.1654 7.99992C15.1654 11.958 11.9567 15.1666 7.9987 15.1666C4.04066 15.1666 0.832031 11.958 0.832031 7.99992C0.832031 7.72378 1.05589 7.49992 1.33203 7.49992C1.60817 7.49992 1.83203 7.72378 1.83203 7.99992C1.83203 11.4057 4.59294 14.1666 7.9987 14.1666C11.4045 14.1666 14.1654 11.4057 14.1654 7.99992C14.1654 4.59416 11.4045 1.83325 7.9987 1.83325C7.72256 1.83325 7.4987 1.60939 7.4987 1.33325ZM7.9987 5.49992C8.27484 5.49992 8.4987 5.72378 8.4987 5.99992V8.16659H10.6654C10.9415 8.16659 11.1654 8.39044 11.1654 8.66659C11.1654 8.94273 10.9415 9.16659 10.6654 9.16659H7.9987C7.72256 9.16659 7.4987 8.94273 7.4987 8.66659V5.99992C7.4987 5.72378 7.72256 5.49992 7.9987 5.49992Z" fill="#68CC58"/>
<path fill-rule="evenodd" clip-rule="evenodd" d="M6.06508 1.59828C6.16453 1.85589 6.0363 2.14535 5.77869 2.24479C5.6844 2.28119 5.59123 2.31984 5.49923 2.36068C5.24684 2.47273 4.95141 2.35896 4.83936 2.10657C4.72732 1.85418 4.84109 1.55875 5.09348 1.4467C5.20048 1.3992 5.30887 1.35423 5.41857 1.31189C5.67618 1.21244 5.96564 1.34066 6.06508 1.59828ZM3.76383 2.82676C3.95427 3.02673 3.94655 3.34322 3.74659 3.53366C3.67347 3.60329 3.60207 3.6747 3.53244 3.74781C3.342 3.94777 3.02551 3.9555 2.82554 3.76505C2.62557 3.57461 2.61785 3.25812 2.80829 3.05816C2.88914 2.97327 2.97205 2.89036 3.05694 2.80951C3.2569 2.61907 3.57339 2.6268 3.76383 2.82676ZM2.10535 4.84058C2.35774 4.95263 2.47151 5.24806 2.35946 5.50045C2.31862 5.59245 2.27997 5.68562 2.24357 5.77991C2.14413 6.03753 1.85467 6.16575 1.59706 6.0663C1.33944 5.96686 1.21122 5.6774 1.31067 5.41979C1.35301 5.31009 1.39797 5.2017 1.44548 5.0947C1.55752 4.84231 1.85296 4.72854 2.10535 4.84058Z" fill="#68CC58"/>
</g>
<defs>
<clipPath id="clip0_1432_17756">
<rect width="16" height="16" fill="white"/>
</clipPath>
</defs>
</svg>
