<svg width="24" height="25" viewBox="0 0 24 25" fill="none" xmlns="http://www.w3.org/2000/svg">
<path d="M15.5777 3.88197L17.5777 4.93152C19.7294 6.06066 20.8052 6.62523 21.4026 7.63974C22 8.65425 22 9.91667 22 12.4415V12.5585C22 15.0833 22 16.3458 21.4026 17.3603C20.8052 18.3748 19.7294 18.9393 17.5777 20.0685L15.5777 21.118C13.8221 22.0393 12.9443 22.5 12 22.5C11.0557 22.5 10.1779 22.0393 8.42229 21.118L6.42229 20.0685C4.27063 18.9393 3.19479 18.3748 2.5974 17.3603C2 16.3458 2 15.0833 2 12.5585V12.4415C2 9.91667 2 8.65425 2.5974 7.63974C3.19479 6.62523 4.27063 6.06066 6.42229 4.93152L8.42229 3.88197C10.1779 2.96066 11.0557 2.5 12 2.5C12.9443 2.5 13.8221 2.96066 15.5777 3.88197Z" stroke="white" stroke-width="1.5" stroke-linecap="round"/>
<path d="M21 8L17 10M12 12.5L3 8M12 12.5V22M12 12.5C12 12.5 14.7426 11.1287 16.5 10.25C16.6953 10.1524 17 10 17 10M17 10V13.5M17 10L7.5 5" stroke="white" stroke-width="1.5" stroke-linecap="round"/>
</svg>
