<svg width="24" height="24" viewBox="0 0 24 24" fill="none" xmlns="http://www.w3.org/2000/svg">
<rect width="24" height="24" rx="4" fill="url(#paint0_linear_1285_5584)"/>
<path fill-rule="evenodd" clip-rule="evenodd" d="M11.7259 19.2727C10.3545 19.2727 9.66881 19.2727 9.24279 18.8467C8.81676 18.4207 8.81676 17.735 8.81676 16.3637C8.81676 14.9923 8.81676 14.3066 9.24279 13.8806C9.66881 13.4546 10.3545 13.4546 11.7259 13.4546C13.0972 13.4546 13.7829 13.4546 14.2089 13.8806C14.6349 14.3066 14.6349 14.9923 14.6349 16.3637C14.6349 17.735 14.6349 18.4207 14.2089 18.8467C13.7829 19.2727 13.0972 19.2727 11.7259 19.2727ZM12.2107 15.0707C12.2107 14.803 11.9936 14.5859 11.7259 14.5859C11.4581 14.5859 11.241 14.803 11.241 15.0707V15.8788H10.4329C10.1651 15.8788 9.94807 16.0959 9.94807 16.3637C9.94807 16.6314 10.1651 16.8485 10.4329 16.8485H11.241V17.6566C11.241 17.9244 11.4581 18.1414 11.7259 18.1414C11.9936 18.1414 12.2107 17.9244 12.2107 17.6566V16.8485H13.0188C13.2866 16.8485 13.5036 16.6314 13.5036 16.3637C13.5036 16.0959 13.2866 15.8788 13.0188 15.8788H12.2107V15.0707Z" fill="white"/>
<path d="M7.72586 16.3637L7.72586 16.2986C7.72578 15.669 7.72572 15.0918 7.78884 14.6223C7.85836 14.1052 8.02192 13.5587 8.47141 13.1092C8.9209 12.6597 9.46741 12.4962 9.98447 12.4266C10.454 12.3635 11.0312 12.3636 11.6608 12.3637H11.791C12.4205 12.3636 12.9977 12.3635 13.4673 12.4266C13.9843 12.4962 14.5308 12.6597 14.9803 13.1092C15.4298 13.5587 15.5934 14.1052 15.6629 14.6223C15.7251 15.0849 15.7259 15.652 15.7259 16.2707C17.5968 15.8706 18.9986 14.2254 18.9986 12.2567C18.9986 10.459 17.8298 8.9311 16.2023 8.37455C15.971 6.32272 14.2101 4.72729 12.0722 4.72729C9.77696 4.72729 7.91633 6.56604 7.91633 8.83425C7.91633 9.33593 8.00735 9.8166 8.17397 10.261C7.97858 10.2231 7.77664 10.2032 7.57001 10.2032C5.8486 10.2032 4.45312 11.5823 4.45312 13.2834C4.45312 14.9846 5.8486 16.3637 7.57001 16.3637L7.72586 16.3637Z" fill="white"/>
<defs>
<linearGradient id="paint0_linear_1285_5584" x1="4.35631" y1="6.17189" x2="31.6437" y2="24.3281" gradientUnits="userSpaceOnUse">
<stop stop-color="#8A6CFF"/>
<stop offset="0.953879" stop-color="#AD99FF"/>
</linearGradient>
</defs>
</svg>
