<svg width="42" height="43" viewBox="0 0 42 43" fill="none" xmlns="http://www.w3.org/2000/svg">
<rect y="0.5" width="42" height="42" rx="8" fill="#EEF6FF"/>
<path d="M26.3267 14.2755L24.4176 13.2736C22.7417 12.3942 21.9038 11.9545 21.0025 11.9545C20.1011 11.9545 19.2632 12.3942 17.5874 13.2736L17.2803 13.4348L25.7977 18.3019L29.6319 16.3848C29.015 15.6863 28.0198 15.164 26.3267 14.2755Z" fill="#007AFF"/>
<path d="M30.3077 17.6477L26.4911 19.556V22.4545C26.4911 22.8499 26.1706 23.1704 25.7752 23.1704C25.3798 23.1704 25.0593 22.8499 25.0593 22.4545V20.2719L21.7184 21.9424V30.9538C22.4037 30.7831 23.1834 30.3739 24.4176 29.7262L26.3267 28.7244C28.3805 27.6466 29.4075 27.1077 29.9777 26.1393C30.5479 25.1709 30.5479 23.9658 30.5479 21.5558V21.4441C30.5479 19.6375 30.5479 18.508 30.3077 17.6477Z" fill="#007AFF"/>
<path d="M20.2866 30.9538V21.9424L11.6972 17.6477C11.457 18.508 11.457 19.6375 11.457 21.4441V21.5558C11.457 23.9658 11.457 25.1709 12.0273 26.1393C12.5975 27.1076 13.6244 27.6466 15.6783 28.7244L17.5874 29.7262C18.8216 30.3739 19.6013 30.7831 20.2866 30.9538Z" fill="#007AFF"/>
<path d="M12.3731 16.3848L21.0025 20.6995L24.2586 19.0715L15.7759 14.2242L15.6783 14.2755C13.9852 15.164 12.9899 15.6863 12.3731 16.3848Z" fill="#007AFF"/>
</svg>
