<svg width="16" height="16" viewBox="0 0 16 16" fill="none" xmlns="http://www.w3.org/2000/svg">
<path d="M2.45191 7.55556H1.95191V7.55556L2.45191 7.55556ZM2.45191 8.66667L2.09974 9.02161C2.29468 9.21502 2.60913 9.21502 2.80407 9.02161L2.45191 8.66667ZM3.92394 7.9105C4.11997 7.716 4.12121 7.39942 3.92672 7.20339C3.73223 7.00737 3.41565 7.00612 3.21962 7.20062L3.92394 7.9105ZM1.68419 7.20062C1.48817 7.00612 1.17159 7.00737 0.977092 7.20339C0.782598 7.39942 0.783842 7.716 0.979869 7.9105L1.68419 7.20062ZM12.4091 4.92853C12.5537 5.16377 12.8616 5.23723 13.0969 5.09261C13.3321 4.94799 13.4056 4.64005 13.261 4.40481L12.4091 4.92853ZM11.2608 2.40525C11.0256 2.26051 10.7176 2.33383 10.5729 2.569C10.4281 2.80417 10.5015 3.11215 10.7366 3.25688L11.2608 2.40525ZM8.30756 2.50626C8.58337 2.51978 8.81792 2.30714 8.83143 2.03133C8.84495 1.75552 8.63231 1.52097 8.3565 1.50746L8.30756 2.50626ZM8.05128 2V1.5C4.6864 1.5 1.95191 4.20747 1.95191 7.55556H2.45191H2.95191C2.95191 4.76714 5.23126 2.5 8.05128 2.5V2ZM2.45191 7.55556L1.95191 7.55556L1.95191 8.66667H2.45191L2.95191 8.66667L2.95191 7.55556H2.45191ZM2.45191 8.66667L2.80407 9.02161L3.92394 7.9105L3.57178 7.55556L3.21962 7.20062L2.09974 8.31173L2.45191 8.66667ZM2.45191 8.66667L2.80407 8.31173L1.68419 7.20062L1.33203 7.55556L0.979869 7.9105L2.09974 9.02161L2.45191 8.66667ZM12.835 4.66667L13.261 4.40481C12.7615 3.59231 12.0749 2.90628 11.2608 2.40525L10.9987 2.83106L10.7366 3.25688C11.4178 3.67613 11.992 4.25004 12.4091 4.92853L12.835 4.66667ZM8.33203 2.00686L8.3565 1.50746C8.25535 1.50251 8.15359 1.5 8.05128 1.5V2V2.5C8.13726 2.5 8.2227 2.50211 8.30756 2.50626L8.33203 2.00686Z" fill="#007AFF"/>
<path d="M7.92312 13.9999V14.4999V13.9999ZM13.5439 8.44436H14.0439H13.5439ZM13.5439 7.33325L13.8954 6.97764C13.7006 6.78512 13.3872 6.78512 13.1924 6.97764L13.5439 7.33325ZM12.0683 8.08875C11.8719 8.28287 11.87 8.59945 12.0641 8.79585C12.2583 8.99225 12.5748 8.99409 12.7712 8.79997L12.0683 8.08875ZM14.3166 8.79997C14.513 8.99409 14.8295 8.99224 15.0237 8.79585C15.2178 8.59945 15.2159 8.28287 15.0195 8.08875L14.3166 8.79997ZM3.54659 11.0707C3.40157 10.8357 3.0935 10.7627 2.85851 10.9078C2.62351 11.0528 2.55057 11.3608 2.6956 11.5958L3.54659 11.0707ZM7.69018 13.4948C7.4143 13.4826 7.18079 13.6964 7.16862 13.9723C7.15644 14.2481 7.37021 14.4816 7.64609 14.4938L7.69018 13.4948ZM4.74341 13.6196C4.97993 13.7621 5.28721 13.6859 5.42973 13.4494C5.57225 13.2129 5.49604 12.9056 5.25952 12.7631L4.74341 13.6196ZM7.92312 13.9999V14.4999C11.298 14.4999 14.0439 11.7942 14.0439 8.44436H13.5439H13.0439C13.0439 11.231 10.7568 13.4999 7.92312 13.4999V13.9999ZM13.5439 8.44436H14.0439V7.33325H13.5439H13.0439V8.44436H13.5439ZM13.5439 7.33325L13.1924 6.97764L12.0683 8.08875L12.4197 8.44436L12.7712 8.79997L13.8954 7.68886L13.5439 7.33325ZM13.5439 7.33325L13.1924 7.68886L14.3166 8.79997L14.6681 8.44436L15.0195 8.08875L13.8954 6.97764L13.5439 7.33325ZM7.66813 13.9943L7.64609 14.4938C7.73795 14.4979 7.83031 14.4999 7.92312 14.4999V13.9999V13.4999C7.84502 13.4999 7.76736 13.4982 7.69018 13.4948L7.66813 13.9943ZM3.12109 11.3333L2.6956 11.5958C3.20526 12.4217 3.90884 13.1167 4.74341 13.6196L5.00146 13.1914L5.25952 12.7631C4.56061 12.342 3.97214 11.7602 3.54659 11.0707L3.12109 11.3333Z" fill="#007AFF"/>
</svg>
