<svg width="16" height="16" viewBox="0 0 16 16" fill="none" xmlns="http://www.w3.org/2000/svg">
<g clip-path="url(#clip0_1432_17750)">
<path d="M4.02506 5.18127C2.38527 5.55229 1.56538 5.7378 1.37031 6.36507C1.17525 6.99235 1.7342 7.64597 2.8521 8.9532L3.14131 9.2914C3.45898 9.66288 3.61782 9.84861 3.68927 10.0784C3.76073 10.3082 3.73672 10.556 3.68869 11.0516L3.64496 11.5029C3.47595 13.247 3.39145 14.1191 3.90213 14.5067C4.41282 14.8944 5.18048 14.5409 6.71581 13.834L7.11302 13.6511C7.54932 13.4503 7.76746 13.3498 7.9987 13.3498C8.22993 13.3498 8.44808 13.4503 8.88437 13.6511L9.28158 13.834C10.8169 14.5409 11.5846 14.8944 12.0953 14.5067C12.606 14.1191 12.5214 13.247 12.3524 11.5028M13.1453 8.9532C14.2632 7.64597 14.8221 6.99235 14.6271 6.36507C14.432 5.7378 13.6121 5.55229 11.9723 5.18127L11.5481 5.08528C11.0821 4.97985 10.8491 4.92714 10.6621 4.78512C10.475 4.64311 10.355 4.42788 10.1151 3.99741L9.89659 3.6055C9.05216 2.09067 8.62994 1.33325 7.9987 1.33325C7.36746 1.33325 6.94524 2.09067 6.10081 3.6055" stroke="#F5BD4F" stroke-linecap="round"/>
</g>
<defs>
<clipPath id="clip0_1432_17750">
<rect width="16" height="16" rx="3.33333" fill="white"/>
</clipPath>
</defs>
</svg>
