<svg width="17" height="16" viewBox="0 0 17 16" fill="none" xmlns="http://www.w3.org/2000/svg">
<path d="M6.74664 3.76387C7.57816 2.2722 7.99392 1.52637 8.61551 1.52637C9.2371 1.52637 9.65286 2.2722 10.4844 3.76387L10.6995 4.14979C10.9358 4.57367 11.0539 4.78561 11.2382 4.92546C11.4224 5.0653 11.6518 5.11721 12.1106 5.22103L12.5284 5.31555C14.1431 5.68089 14.9505 5.86356 15.1425 6.48125C15.3346 7.09893 14.7842 7.74256 13.6834 9.0298L13.3986 9.36283C13.0858 9.72863 12.9294 9.91152 12.859 10.1378C12.7887 10.3641 12.8123 10.6081 12.8596 11.0961L12.9027 11.5405C13.0691 13.2579 13.1523 14.1167 12.6494 14.4984C12.1466 14.8802 11.3906 14.5321 9.87878 13.836L9.48764 13.6559C9.05802 13.4581 8.84321 13.3592 8.61551 13.3592C8.38781 13.3592 8.173 13.4581 7.74338 13.6559L7.35224 13.836C5.84039 14.5321 5.08446 14.8802 4.58158 14.4984C4.07871 14.1167 4.16192 13.2579 4.32835 11.5405L4.3714 11.0961C4.4187 10.6081 4.44234 10.3641 4.37198 10.1378C4.30162 9.91152 4.14521 9.72863 3.8324 9.36283L3.5476 9.0298C2.4468 7.74256 1.89639 7.09893 2.08848 6.48125C2.28056 5.86356 3.08791 5.68089 4.70263 5.31555L5.12037 5.22103C5.57923 5.11721 5.80865 5.0653 5.99286 4.92546C6.17708 4.78561 6.29522 4.57367 6.53152 4.14979L6.74664 3.76387Z" fill="#FFCC00"/>
</svg>
