<svg width="24" height="24" viewBox="0 0 24 24" fill="none" xmlns="http://www.w3.org/2000/svg">
<rect width="24" height="24" rx="4" fill="url(#paint0_linear_1378_7027)"/>
<path fill-rule="evenodd" clip-rule="evenodd" d="M18.8809 11.3646L18.7142 13.1357C18.4396 16.054 18.3022 17.5131 17.4421 18.3929C16.5821 19.2727 15.293 19.2727 12.7149 19.2727H10.7368C8.1587 19.2727 6.86964 19.2727 6.00956 18.3929C5.14947 17.5131 5.01214 16.054 4.73749 13.1357L4.5708 11.3646C4.43989 9.97362 4.37443 9.27812 4.61239 8.99062C4.74111 8.8351 4.91615 8.73981 5.1033 8.72337C5.44926 8.69298 5.88373 9.18759 6.75267 10.1768C7.20205 10.6884 7.42674 10.9442 7.6774 10.9838C7.81628 11.0057 7.95779 10.9832 8.08604 10.9186C8.3175 10.8021 8.47181 10.4859 8.78045 9.85349L10.4073 6.51992C10.9905 5.32484 11.2821 4.72729 11.7259 4.72729C12.1696 4.72729 12.4612 5.32484 13.0444 6.51992L14.6713 9.85349C14.9799 10.4859 15.1342 10.8021 15.3657 10.9186C15.4939 10.9832 15.6354 11.0057 15.7743 10.9838C16.025 10.9442 16.2497 10.6884 16.699 10.1768C17.568 9.18759 18.0024 8.69298 18.3484 8.72337C18.5356 8.73981 18.7106 8.8351 18.8393 8.99062C19.0773 9.27812 19.0118 9.97362 18.8809 11.3646ZM8.99858 16.3637C8.99858 16.0624 9.24279 15.8182 9.54403 15.8182H13.9077C14.2089 15.8182 14.4531 16.0624 14.4531 16.3637C14.4531 16.6649 14.2089 16.9091 13.9077 16.9091H9.54403C9.24279 16.9091 8.99858 16.6649 8.99858 16.3637Z" fill="white"/>
<defs>
<linearGradient id="paint0_linear_1378_7027" x1="0.325124" y1="1.1484" x2="44.0543" y2="9.81819" gradientUnits="userSpaceOnUse">
<stop stop-color="#007AFF"/>
<stop offset="1" stop-color="white"/>
</linearGradient>
</defs>
</svg>
