<svg width="24" height="24" viewBox="0 0 24 24" fill="none" xmlns="http://www.w3.org/2000/svg">
<rect width="24" height="24" rx="4" fill="url(#paint0_linear_1378_7040)"/>
<path d="M10.3321 9.01605C11.1151 7.61139 11.5066 6.90906 12.092 6.90906C12.6773 6.90906 13.0688 7.61139 13.8518 9.01605L14.0544 9.37946C14.2769 9.77862 14.3882 9.9782 14.5616 10.1099C14.7351 10.2416 14.9512 10.2905 15.3832 10.3882L15.7766 10.4772C17.2972 10.8213 18.0574 10.9933 18.2383 11.5749C18.4192 12.1566 17.9009 12.7627 16.8643 13.9748L16.5961 14.2884C16.3015 14.6329 16.1542 14.8051 16.088 15.0182C16.0217 15.2313 16.044 15.4611 16.0885 15.9206L16.1291 16.339C16.2858 17.9563 16.3642 18.765 15.8906 19.1245C15.4171 19.4839 14.7052 19.1562 13.2816 18.5007L12.9132 18.3311C12.5087 18.1448 12.3064 18.0517 12.092 18.0517C11.8776 18.0517 11.6753 18.1448 11.2707 18.3311L10.9024 18.5007C9.47872 19.1562 8.76688 19.4839 8.29334 19.1245C7.81979 18.765 7.89815 17.9563 8.05487 16.339L8.09542 15.9206C8.13995 15.4611 8.16222 15.2313 8.09596 15.0182C8.0297 14.8051 7.88242 14.6329 7.58785 14.2884L7.31967 13.9748C6.28307 12.7627 5.76478 12.1566 5.94565 11.5749C6.12653 10.9933 6.8868 10.8213 8.40732 10.4772L8.8007 10.3882C9.23279 10.2905 9.44883 10.2416 9.6223 10.1099C9.79577 9.9782 9.90703 9.77862 10.1295 9.37946L10.3321 9.01605Z" fill="white"/>
<path d="M6.54108 5.09115C6.56289 5.01422 6.69945 5.01376 6.72178 5.09054C6.82374 5.44117 7.01282 5.95944 7.29873 6.24342C7.58463 6.5274 8.10417 6.71297 8.45547 6.81257C8.53241 6.83438 8.53287 6.97093 8.45608 6.99326C8.10546 7.09523 7.58719 7.2843 7.30321 7.57021C7.01922 7.85612 6.83366 8.37565 6.73406 8.72696C6.71225 8.80389 6.57569 8.80435 6.55336 8.72757C6.4514 8.37694 6.26233 7.85868 5.97642 7.57469C5.69051 7.29071 5.17098 7.10514 4.81967 7.00555C4.74274 6.98374 4.74227 6.84718 4.81906 6.82485C5.16968 6.72288 5.68795 6.53381 5.97194 6.2479C6.25592 5.96199 6.44149 5.44246 6.54108 5.09115Z" fill="white"/>
<path fill-rule="evenodd" clip-rule="evenodd" d="M16.8196 5.63635C17.1208 5.63635 17.3651 5.88056 17.3651 6.18181V6.36363H17.5469C17.8481 6.36363 18.0923 6.60783 18.0923 6.90908C18.0923 7.21033 17.8481 7.45453 17.5469 7.45453H17.3651V7.63635C17.3651 7.9376 17.1208 8.18181 16.8196 8.18181C16.5184 8.18181 16.2741 7.9376 16.2741 7.63635V7.45453H16.0923C15.7911 7.45453 15.5469 7.21033 15.5469 6.90908C15.5469 6.60783 15.7911 6.36363 16.0923 6.36363H16.2741V6.18181C16.2741 5.88056 16.5184 5.63635 16.8196 5.63635Z" fill="white"/>
<defs>
<linearGradient id="paint0_linear_1378_7040" x1="5.5" y1="2.38419e-07" x2="27.5" y2="24" gradientUnits="userSpaceOnUse">
<stop stop-color="#FFBD3A"/>
<stop offset="1" stop-color="#FFA900"/>
</linearGradient>
</defs>
</svg>
