<svg width="24" height="24" viewBox="0 0 24 24" fill="none" xmlns="http://www.w3.org/2000/svg">
<rect width="24" height="24" rx="4" fill="url(#paint0_linear_1288_5750)"/>
<path d="M14.2745 8.72722C14.2745 10.133 13.1349 11.2727 11.729 11.2727C10.3232 11.2727 9.18359 10.133 9.18359 8.72722C9.18359 7.3214 10.3232 6.18176 11.729 6.18176C13.1349 6.18176 14.2745 7.3214 14.2745 8.72722Z" fill="white"/>
<path d="M16.0906 15.2727C16.0906 16.6786 14.1369 17.8182 11.7269 17.8182C9.31695 17.8182 7.36328 16.6786 7.36328 15.2727C7.36328 13.8669 9.31695 12.7273 11.7269 12.7273C14.1369 12.7273 16.0906 13.8669 16.0906 15.2727Z" fill="white"/>
<path d="M8.17825 6.90906C8.30731 6.90906 8.43331 6.92172 8.55498 6.94583C8.25857 7.4723 8.08949 8.08002 8.08949 8.72724C8.08949 9.3587 8.25044 9.95256 8.53356 10.47C8.41854 10.4915 8.29976 10.5027 8.17825 10.5027C7.14959 10.5027 6.31569 9.69824 6.31569 8.70588C6.31569 7.71352 7.14959 6.90906 8.17825 6.90906Z" fill="white"/>
<path d="M6.96028 17.0807C6.54725 16.5869 6.27131 15.9811 6.27131 15.2727C6.27131 14.586 6.53063 13.9956 6.92278 13.5103C5.53756 13.6178 4.45312 14.3754 4.45312 15.2941C4.45312 16.2214 5.55662 16.9846 6.96028 17.0807Z" fill="white"/>
<path d="M15.3639 8.72724C15.3639 9.3587 15.203 9.95256 14.9199 10.47C15.0349 10.4915 15.1537 10.5027 15.2752 10.5027C16.3038 10.5027 17.1377 9.69824 17.1377 8.70588C17.1377 7.71352 16.3038 6.90906 15.2752 6.90906C15.1461 6.90906 15.0201 6.92172 14.8984 6.94583C15.1948 7.4723 15.3639 8.08002 15.3639 8.72724Z" fill="white"/>
<path d="M16.4931 17.0807C17.8968 16.9846 19.0003 16.2214 19.0003 15.2941C19.0003 14.3754 17.9159 13.6178 16.5306 13.5103C16.9228 13.9956 17.1821 14.586 17.1821 15.2727C17.1821 15.9811 16.9062 16.5869 16.4931 17.0807Z" fill="white"/>
<defs>
<linearGradient id="paint0_linear_1288_5750" x1="7.5" y1="7.5" x2="24" y2="20.5" gradientUnits="userSpaceOnUse">
<stop stop-color="#F68C01"/>
<stop offset="1" stop-color="#FFC982"/>
</linearGradient>
</defs>
</svg>
